{"title":"The Rum Diary 2011 Cam XViD DTRG","uid":6783536,"size":1177650232,"categoryP":"video","categoryS":"movies","magnet":"?xt=urn:btih:86d04f9777b6fc8a793f3d5631e194357326de36&amp;dn=The+Rum+Diary+2011+Cam+XViD+DTRG&amp;tr=udp%3A%2F%2Ftracker.openbittorrent.com%3A80&amp;tr=udp%3A%2F%2Fopen.demonii.com%3A1337&amp;tr=udp%3A%2F%2Ftracker.coppersurfer.tk%3A6969&amp;tr=udp%3A%2F%2Fexodus.desync.com%3A6969","seeders":1,"leechers":0,"uploader":"SAFCukO09","files":5,"time":1320002048,"description":"\nFormat : AVI\nFormat/Info : Audio Video Interleave\nFile size : 1.09 GiB\nDuration : 1h 50mn\nOverall bit rate : 1 407 Kbps\nWriting library : VirtualDub build 32842/release\n\nVideo\nID : 0\nFormat : MPEG-4 Visual\nFormat profile : Advanced Simple@L5\nFormat settings, BVOP : 2\nFormat settings, QPel : No\nFormat settings, GMC : No warppoints\nFormat settings, Matrix : Default (H.263)\nMuxing mode : Packed bitstream\nCodec ID : XVID\nCodec ID/Hint : XviD\nDuration : 1h 50mn\nBit rate : 1 269 Kbps\nWidth : 672 pixels\nHeight : 368 pixels\nDisplay aspect ratio : 16:9\nFrame rate : 25.000 fps\nColor space : YUV\nChroma subsampling : 4:2:0\nBit depth : 8 bits\nScan type : Progressive\nCompression mode : Lossy\nBits/(Pixel*Frame) : 0.205\nStream size : 1 002 MiB (90%)\nWriting library : XviD 64\n\nAudio\nID : 1\nFormat : MPEG Audio\nFormat version : Version 1\nFormat profile : Layer 3\nMode : Joint stereo\nMode extension : MS Stereo\nCodec ID : 55\nCodec ID/Hint : MP3\nDuration : 1h 50mn\nBit rate mode : Constant\nBit rate : 128 Kbps\nChannel(s) : 2 channels\nSampling rate : 44.1 KHz\nCompression mode : Lossy\nStream size : 101 MiB (9%)\nAlignment : Split accross interleaves\nInterleave, duration : 40 ms (1.00 video frame)\nInterleave, preload duration : 500 ms\nWriting library : LAME3.98r\nEncoding settings : -m j -V 4 -q 2 -lowpass 17 -b 128\n\n\n\n\n\n\n\n\n\n &lt;a href=&quot;\nhttp://www.imdb.com/title/tt0376136/&quot; rel=&quot;nofollow&quot; target=&quot;_NEW&quot;&gt;\nhttp://www.imdb.com/title/tt0376136/&lt;/a&gt;\n\n\n\nRatings: 7.0/10 from 788 users Metascore: 57/100\nReviews: 12 user | 15 critic | 35 from Metacritic.com\n\nAmerican journalist Paul Kemp takes on a freelance job in Puerto Rico for a local newspaper during the 1950s and struggles to find a balance between island culture and the expatriates who live there.\nDirector:\nBruce Robinson\nWriters:\nBruce Robinson (screenplay), Hunter S. Thompson (novel)\nStars:\nJohnny Depp, Giovanni Ribisi and Aaron Eckhart\n\n\n\n\n\n\n\n\n\n\n\n\n\n\n\n\n\nSource Used\n\n\n\n\nRELIZLAB/iLLUMiNATi ..........Thanks as ever\n\n\nVid has plenty flaws so check out the sample 1st ........Blocky in dark scenes and the vid can be quite dark tbh\n\nDone what i can with it anyway but as said check that sample out\n\n\nEnjoy\n\n\n\n\n\nGreetz to IMAGiNE,Flawl3ss,BDK,Ez,CreWsaDe,TaRiQ786,ETRG,BHRG,iLLUMiNATi,ViSUALiSE,MiSTERE\n\n","torrent":{"xt":"urn:btih:86d04f9777b6fc8a793f3d5631e194357326de36","amp;dn":"The+Rum+Diary+2011+Cam+XViD+DTRG","amp;tr":["udp%3A%2F%2Ftracker.openbittorrent.com%3A80","udp%3A%2F%2Fopen.demonii.com%3A1337","udp%3A%2F%2Ftracker.coppersurfer.tk%3A6969","udp%3A%2F%2Fexodus.desync.com%3A6969"],"infoHash":"86d04f9777b6fc8a793f3d5631e194357326de36","infoHashBuffer":{"type":"Buffer","data":[134,208,79,151,119,182,252,138,121,63,61,86,49,225,148,53,115,38,222,54]},"announce":[],"urlList":[]}}